<svg width="280" height="400" fill="none" xmlns="http://www.w3.org/2000/svg">
  <path fill="#ECECEC" d="M0 0h280v400H0z" />
  <g clip-path="url(#a)" fill="#959595">
    <path d="m125.04 203.21-22.58-25a4.98 4.98 0 0 0-2.46 4.29v40a5 5 0 0 0 5 5h41.97l-9.2-10.18c-6.99-1.05-12.4-6.9-12.73-14.1ZM175 177.5h-17.5l-3.62-7.24a5 5 0 0 0-4.47-2.76h-18.82a5 5 0 0 0-4.47 2.76l-1.7 3.39-10.7-12a5 5 0 1 0-7.44 6.7l62.5 70a4.98 4.98 0 0 0 7.06.37 5 5 0 0 0 .37-7.06l-3.7-4.16H175a5 5 0 0 0 5-5v-40a5 5 0 0 0-5-5Zm-37.94 10.3A15 15 0 0 1 155 202.5c0 1.6-.28 3.13-.74 4.57l-17.2-19.27Z" />
  </g>
  <defs>
    <clipPath id="a">
      <path fill="#fff" transform="translate(100 160)" d="M0 0h80v80H0z" />
    </clipPath>
  </defs>
</svg>